<?xml version="1.0" encoding="utf-8"?>
<!-- Generator: Adobe Illustrator 26.5.3, SVG Export Plug-In . SVG Version: 6.00 Build 0)  -->
<svg version="1.1" id="Layer_1" xmlns="http://www.w3.org/2000/svg" xmlns:xlink="http://www.w3.org/1999/xlink" x="0px" y="0px"
	 viewBox="0 0 24 24" style="enable-background:new 0 0 24 24;" xml:space="preserve">
<style type="text/css">
	.st0{fill:#FFFFFF;}
</style>
<path class="st0" d="M19,1h-3c-0.6,0-1,0.4-1,1s0.4,1,1,1h3c1.7,0,3,1.3,3,3v7H2V6c0-0.8,0.3-1.6,0.9-2.1C3.5,3.3,4.2,3,5,3h0l3,0h0
	c0.6,0,1-0.4,1-1c0-0.6-0.4-1-1-1L5,1h0C3.7,1,2.4,1.5,1.5,2.5C0.5,3.4,0,4.7,0,6v8c0,2.8,2.2,5,5,5h6v2H7c-0.6,0-1,0.4-1,1
	s0.4,1,1,1h10c0.6,0,1-0.4,1-1s-0.4-1-1-1h-4v-2h6c2.8,0,5-2.2,5-5V6C24,3.2,21.8,1,19,1L19,1z M19,17H5c-1.3,0-2.4-0.8-2.8-2h19.6
	C21.4,16.2,20.3,17,19,17L19,17z M11,8.4V1c0-0.6,0.4-1,1-1s1,0.4,1,1v7.4l2.3-2.2c0.4-0.4,1-0.4,1.4,0.1c0.4,0.4,0.4,1-0.1,1.4
	l-2.6,2.4C13.5,10.7,12.8,11,12,11c-0.8,0-1.5-0.3-2.1-0.9L7.3,7.7c-0.4-0.4-0.4-1-0.1-1.4c0.4-0.4,1-0.4,1.4-0.1L11,8.4L11,8.4z"/>
</svg>
