<?xml version="1.0" encoding="utf-8"?>
<!-- Generator: Adobe Illustrator 26.5.3, SVG Export Plug-In . SVG Version: 6.00 Build 0)  -->
<svg version="1.1" id="Outline" xmlns="http://www.w3.org/2000/svg" xmlns:xlink="http://www.w3.org/1999/xlink" x="0px" y="0px"
	 viewBox="0 0 512 512" style="enable-background:new 0 0 512 512;" xml:space="preserve">
<style type="text/css">
	.st0{fill:#FFFFFF;}
</style>
<path class="st0" d="M496.4,200.9c-19.3-31.5-43.6-59.7-71.9-83.4l59.7-59.7c8.2-8.5,8-22-0.5-30.2c-8.3-8-21.4-8-29.6,0l-65,65
	C348.9,68.8,302.8,56.3,256,56.6c-132.1,0-207.3,90.4-240.4,144.3c-20.9,33.7-20.9,76.4,0,110.1c19.3,31.5,43.6,59.7,71.9,83.4
	l-59.7,59.7c-8.5,8.2-8.7,21.7-0.5,30.2c8.2,8.5,21.7,8.7,30.2,0.5c0.2-0.2,0.4-0.3,0.5-0.5l65.1-65.1c40.2,23.9,86.2,36.4,133,36.1
	c132.1,0,207.3-90.4,240.4-144.3C517.3,277.3,517.3,234.7,496.4,200.9z M51.9,288.7c-12.4-20.1-12.4-45.4,0-65.5
	c28.5-46.2,92.8-124,204.1-124c35.4-0.2,70.3,8.3,101.7,24.9l-42.9,42.9c-49-32.5-115.1-19.2-147.6,29.8
	c-23.7,35.7-23.7,82.1,0,117.8L117.8,364C91.7,342.9,69.4,317.4,51.9,288.7z M320,256c0,35.3-28.7,64-64,64
	c-9.5,0-18.9-2.2-27.4-6.4l85-85C317.8,237.1,320,246.5,320,256z M192,256c0-35.3,28.7-64,64-64c9.5,0,18.9,2.2,27.4,6.4l-85,85
	C194.2,274.9,192,265.5,192,256z M460.1,288.7c-28.5,46.2-92.8,124-204.1,124c-35.4,0.2-70.3-8.3-101.7-24.9l42.9-42.9
	c49,32.5,115.1,19.2,147.6-29.8c23.7-35.7,23.7-82.1,0-117.8l49.3-49.3c26.1,21.1,48.4,46.6,65.9,75.3
	C472.5,243.3,472.5,268.7,460.1,288.7L460.1,288.7z"/>
</svg>
