<?xml version="1.0" encoding="utf-8"?>
<!-- Generator: Adobe Illustrator 26.5.3, SVG Export Plug-In . SVG Version: 6.00 Build 0)  -->
<svg version="1.1" id="Layer_1" xmlns="http://www.w3.org/2000/svg" xmlns:xlink="http://www.w3.org/1999/xlink" x="0px" y="0px"
	 viewBox="0 0 24 24" style="enable-background:new 0 0 24 24;" xml:space="preserve">
<style type="text/css">
	.st0{fill:#FFFFFF;}
</style>
<path class="st0" d="M14.5,10.1l-0.3,3.7c0,0.4-0.3,0.8-0.7,0.8c-0.2,0-0.5-0.2-0.6-0.4l-0.8-1.6l-0.8,1.6c-0.1,0.2-0.4,0.4-0.6,0.4
	c-0.4,0-0.7-0.3-0.7-0.8l-0.3-3.7c0-0.3,0.2-0.6,0.5-0.6c0.3,0,0.5,0.2,0.5,0.5l0.2,2.7l0.8-1.4c0.2-0.4,0.7-0.4,0.9,0l0.8,1.4
	l0.2-2.7c0-0.3,0.2-0.5,0.5-0.5h0C14.3,9.5,14.5,9.8,14.5,10.1z M19.9,9.5L19.9,9.5c-0.3,0-0.5,0.2-0.5,0.5l-0.2,2.7l-0.8-1.4
	c-0.2-0.4-0.7-0.4-0.9,0l-0.8,1.4L16.6,10c0-0.3-0.2-0.5-0.5-0.5c-0.3,0-0.5,0.3-0.5,0.6l0.3,3.7c0,0.4,0.3,0.8,0.7,0.8
	c0.2,0,0.5-0.2,0.6-0.4l0.8-1.6l0.8,1.6c0.1,0.2,0.4,0.4,0.6,0.4c0.4,0,0.7-0.3,0.7-0.8l0.3-3.7C20.5,9.8,20.2,9.5,19.9,9.5z
	 M7.9,9.5L7.9,9.5c-0.3,0-0.5,0.2-0.5,0.5l-0.2,2.7l-0.8-1.4c-0.2-0.4-0.7-0.4-0.9,0l-0.8,1.4L4.6,10c0-0.3-0.2-0.5-0.5-0.5
	c-0.3,0-0.5,0.3-0.5,0.6l0.3,3.7c0,0.4,0.3,0.8,0.7,0.8c0.2,0,0.5-0.2,0.6-0.4L6,12.5l0.8,1.6c0.1,0.2,0.4,0.4,0.6,0.4
	c0.4,0,0.7-0.3,0.7-0.8l0.3-3.7C8.5,9.8,8.2,9.5,7.9,9.5z M12,24L12,24C5.4,24,0,18.6,0,12S5.4,0,12,0c0,0,0,0,0,0h0
	c6.6,0,12,5.4,12,12S18.6,24,12,24L12,24z M14.7,18H9.3c0.9,1.6,2,2.9,2.7,3.6C12.7,20.9,13.8,19.6,14.7,18L14.7,18z M21.2,16
	c0.5-1.2,0.8-2.6,0.8-4s-0.3-2.8-0.8-4h-4.8c0,0,0,0,0,0c0,0,0,0,0,0H7.7c0,0,0,0,0,0c0,0,0,0,0,0H2.8C2.3,9.2,2,10.6,2,12
	s0.3,2.8,0.8,4h4.8c0,0,0,0,0.1,0h8.6c0,0,0,0,0.1,0H21.2L21.2,16z M9.3,6h5.4c-0.9-1.6-2-2.9-2.7-3.6C11.3,3.1,10.2,4.4,9.3,6
	L9.3,6z M14.6,2.3c0.8,1,1.6,2.2,2.4,3.7h3C18.7,4.2,16.8,2.9,14.6,2.3z M4,6h3c0.7-1.5,1.6-2.7,2.4-3.7C7.2,2.9,5.3,4.2,4,6z
	 M9.4,21.7c-0.8-1-1.6-2.2-2.4-3.7H4C5.3,19.8,7.2,21.1,9.4,21.7z M20,18h-3c-0.7,1.5-1.6,2.7-2.4,3.7C16.8,21.1,18.7,19.8,20,18z"
	/>
</svg>
