<?xml version="1.0" encoding="utf-8"?>
<!-- Generator: Adobe Illustrator 26.5.3, SVG Export Plug-In . SVG Version: 6.00 Build 0)  -->
<svg version="1.1" id="Layer_1" xmlns="http://www.w3.org/2000/svg" xmlns:xlink="http://www.w3.org/1999/xlink" x="0px" y="0px"
	 viewBox="0 0 512 512" style="enable-background:new 0 0 512 512;" xml:space="preserve">
<style type="text/css">
	.st0{fill:#FFFFFF;}
</style>
<path class="st0" d="M405.3,213.3c58.9,0,106.6-47.8,106.6-106.7C511.9,47.7,464.1,0,405.2,0S298.6,47.8,298.6,106.7
	c0,28.3,11.3,55.4,31.3,75.4C349.9,202.2,377,213.4,405.3,213.3z M450.6,152c-19.2,19-48.3,23.9-72.7,12.3l85-85
	C474.6,103.7,469.6,132.8,450.6,152L450.6,152z M360.1,61.4c19.2-19,48.3-24,72.7-12.3l-85,85C336.1,109.7,341,80.6,360.1,61.4z
	 M512,256v149.3c-0.1,58.9-47.8,106.6-106.7,106.7H106.7C47.8,511.9,0.1,464.2,0,405.3V170.7C0.1,111.8,47.8,64.1,106.7,64h128
	c11.8,0,21.3,9.6,21.3,21.3s-9.6,21.3-21.3,21.3h-128c-23.6,0.1-45.3,13.2-56.3,34.1l160.4,160.4c25,24.9,65.5,24.9,90.5,0
	l39.9-39.2c8.5-8.1,22-7.8,30.2,0.7c8,8.4,7.8,21.5-0.3,29.7l-39.8,39c-41.7,41.5-109.1,41.5-150.7-0.1L42.7,193.5v211.8
	c0,35.3,28.7,64,64,64h298.7c35.3,0,64-28.7,64-64V256c0-11.8,9.6-21.3,21.3-21.3C502.4,234.7,512,244.2,512,256z"/>
</svg>
