<?xml version="1.0" encoding="utf-8"?>
<!-- Generator: Adobe Illustrator 26.5.3, SVG Export Plug-In . SVG Version: 6.00 Build 0)  -->
<svg version="1.1" id="Layer_1" xmlns="http://www.w3.org/2000/svg" xmlns:xlink="http://www.w3.org/1999/xlink" x="0px" y="0px"
	 viewBox="0 0 512 512" style="enable-background:new 0 0 512 512;" xml:space="preserve">
<style type="text/css">
	.st0{fill:#FFFFFF;}
</style>
<path class="st0" d="M375.7,274.1l133.7,133.7l-67.6,67.6c-23.8,23.7-56.1,36.9-89.7,36.6C197.4,512,0,314.6,0,160
	c-0.3-33.6,12.9-65.9,36.6-89.8l67.6-67.6l133.7,133.7l-88,88c26.2,62.2,75.6,111.7,137.7,138L375.7,274.1z M469.3,213.3H512
	C511.9,95.6,416.4,0.1,298.7,0v42.7C392.9,42.8,469.2,119.1,469.3,213.3z M384,213.3h42.7c-0.1-70.7-57.3-127.9-128-128V128
	C345.8,128,384,166.2,384,213.3z"/>
</svg>
